<svg xmlns="http://www.w3.org/2000/svg" xmlns:xlink="http://www.w3.org/1999/xlink"><symbol id="icon-burger"><path d="M71.914 46.042H4.252C1.914 46.042 0 47.955 0 50.294v3.454C0 56.086 1.914 58 4.252 58h.956v1.037c0 5.457 4.464 9.922 9.921 9.922h45.908c5.456 0 9.921-4.465 9.921-9.922V58h.956c2.339 0 4.252-1.914 4.252-4.252v-3.454c0-2.339-1.913-4.252-4.252-4.252zm-3.956 12.995c0 3.815-3.104 6.922-6.921 6.922H15.129c-3.816 0-6.921-3.104-6.921-6.922V58h59.75v1.037zm5.208-5.289c0 .679-.573 1.252-1.252 1.252H4.252C3.573 55 3 54.427 3 53.748v-3.454c0-.679.573-1.252 1.252-1.252h67.662c.679 0 1.252.573 1.252 1.252v3.454zM16.162 37.856l5.473 4 5.477-4 5.479 4 5.478-4 5.479 4 5.478-4 5.479 4 5.48-4 5.489 4 6.368-4.644-1.768-2.424-4.6 3.356-5.489-4-5.48 4-5.479-4.001-5.478 4.001-5.479-4.001-5.478 4.001-5.479-4.001-5.476 4.001-5.473-4.002-5.477 4.002-4.593-3.355-1.77 2.422 6.363 4.645zM70.888 31.094c.041-.61.055-2.616.037-3C70.242 12.476 55.804 0 38.083 0 20.363 0 5.924 12.476 5.241 28.094c-.017.384-.004 2.389.039 3h65.608zM38.083 3c16.031 0 29.15 11.154 29.842 25.094H8.241C8.933 14.154 22.051 3 38.083 3z"/><circle cx="38.083" cy="15.042" r="2"/><circle cx="30.083" cy="10.083" r="2"/><circle cx="46.083" cy="10.083" r="2"/></symbol><symbol id="icon-cross" viewBox="0 0 22.199 22.199">
  <polygon points="22.199,2.804 19.396,0 11.1,8.297 2.804,0 0,2.803 8.297,11.1 0,19.396 2.803,22.199 11.1,13.902 19.396,22.199 22.199,19.396 13.903,11.1 "/>
</symbol><symbol id="icon-facebook" viewBox="0 0 8.672 18.944">
  <path d="M6.275,3.356c0.799,0,1.599,0,2.398,0c0-1.119,0-2.237,0-3.356c-0.959,0-1.92,0-2.878,0C2.656,0.181,1.54,2.387,1.948,6.114 H0v3.518h1.959c0,3.104,0,6.208,0,9.312c1.279,0,2.559,0,3.837,0c0-3.104,0-6.208,0-9.312h2.857V6.114H5.787 C5.765,5.069,5.75,3.709,6.275,3.356z"/>
</symbol><symbol id="icon-gift"><path d="M60.165 22.23H35.758c13.604-6.815 14.688-11.115 14.188-13.52-1.145-3.916-5.604-6.938-9.848-5.341-5.484 2.063-7.029 10.262-8.514 16.19-1.894-5.998-3.726-13.649-8.011-17.525C22.331.909 20.524-.203 17.897.031c-3.965.352-9.652 5.317-7.344 10.849 2.217 5.313 9.539 8.67 14.354 11.35H2.834C1.275 22.23 0 23.506 0 25.065V36.25c0 1.559 1.275 2.834 2.835 2.834h.27v35.999h56.958V39.084h.104c1.561 0 2.835-1.275 2.835-2.834V25.065c-.002-1.559-1.277-2.835-2.837-2.835zM41.766 5.873c2.07-.306 4.907 1.283 5.176 3.171.386 2.723-3.349 5.192-5.008 6.343-2.484 1.723-4.853 2.611-7.178 4.006.872-3.645 2.512-12.854 7.01-13.52zm-22.534 9.848c-2.19-1.467-6.444-4.378-6.342-7.678.11-3.552 5.655-6.491 8.68-3.839 3.797 3.331 5.625 10.972 7.01 16.357-3.199-1.519-6.23-2.753-9.348-4.84zm5.882 56.426H6.042V39.084h19.072v33.063zm0-36.063H3V25.23h22.114v10.854zm10.001 36.062h-7.063V25.23h7.063v46.916zm22.01.001H38.053V39.084h19.072v33.063zM60 36.084H38.053V25.23H60v10.854z"/></symbol><symbol id="icon-house"><path d="M29.503 65.345h16V41.407h-16v23.938zm13.063-2.938H32.441V44.345h10.125v18.062z"/><path d="M72.62 39.44l2.075-2.078-9.907-9.913V.47H50.974v13.161L37.349 0 0 37.363l2.077 2.078 7.832-7.832v37.799H5.971v2.938h63.875v-2.938h-5.059v-37.8l7.833 7.832zM53.913 3.408h7.938v21.104l-7.938-7.94V3.408zm7.937 65.999H12.846V28.671L37.348 4.169 61.85 28.671v40.736z"/><path d="M29.753 27.21a7.75 7.75 0 1015.5 0 7.75 7.75 0 00-15.5 0zm7.75-4.969a4.97 4.97 0 110 9.941 4.97 4.97 0 010-9.941zM16.909 41.407h3v3.938h-3zm5.937 0h3v3.938h-3zm-5.937 6h3v3.938h-3zm5.937 0h3v3.938h-3zm26-6h3v3.938h-3zm5.938 0h3v3.938h-3zm-5.938 6h3v3.938h-3zm5.938 0h3v3.938h-3z"/></symbol><symbol id="icon-like" viewBox="0 0 22 20">
  <g id="Page-1">
    <g id="Core" transform="translate(-295.000000, -464.000000)">
      <g id="thumb-up" transform="translate(295.000000, 464.000000)">
        <path id="Shape" fill="#000000" d="M12.383,3.646l-0.637,2.929L11.219,9H13.7h6.2v2c0,0.018,0,0.037,0.001,0.058L17,18H8V8.029 l0.014-0.015L12.383,3.646 M2,10v8V10 M13.2,0L6.6,6.6C6.2,6.9,6,7.4,6,8v10c0,1.1,0.9,2,2,2h9c0.8,0,1.5-0.5,1.8-1.2l3-7.1 C21.9,11.5,21.9,11.2,21.9,11V9H22c0-1.1-0.9-2-2-2h-6.3l1-4.6V2.1c0-0.4-0.2-0.8-0.4-1.1L13.2,0L13.2,0z M4,8H0v12h4V8L4,8z M22,9c0,0.033,0,0.044,0,0.044V9L22,9z"/>
      </g>
    </g>
  </g>
</symbol><symbol id="icon-mail" viewBox="0 0 16 16">
  <path d="M8,10c-0.266,0-0.5-0.094-1-0.336L0,6v7c0,0.55,0.45,1,1,1h14c0.55,0,1-0.45,1-1V6L9,9.664C8.5,9.906,8.266,10,8,10z M15,2 H1C0.45,2,0,2.45,0,3v0.758l8,4.205l8-4.205V3C16,2.45,15.55,2,15,2z"/>
</symbol><symbol id="icon-map-marker" viewBox="0 0 27 27">
  <circle fill="#FFFFFF" cx="13.5" cy="13.5" r="13.5"/>
  <circle fill="#81B3D3" cx="13.5" cy="13.5" r="8.361"/>
</symbol><symbol id="icon-menu" viewBox="0 0 22.928 21.982">
  <g>
    <rect width="22.928" height="3.964"/>
    <rect y="9.009" width="22.928" height="3.964"/>
    <rect y="18.018" width="22.928" height="3.964"/>
  </g>
</symbol><symbol id="icon-phone" viewBox="0 0 18 18">
  <g id="Page-1">
    <g id="Icons-Communication" transform="translate(-85.000000, -126.000000)">
      <g id="phone" transform="translate(85.000000, 126.000000)">
        <path id="Shape" fill="#010101" d="M3.6,7.8C5,10.6,7.4,12.9,10.2,14.4l2.2-2.2c0.3-0.3,0.699-0.4,1-0.2c1.1,0.4,2.3,0.6,3.6,0.6 c0.6,0,1,0.4,1,1V17c0,0.6-0.4,1-1,1C7.6,18,0,10.4,0,1c0-0.6,0.4-1,1-1h3.5c0.6,0,1,0.4,1,1c0,1.2,0.2,2.4,0.6,3.6 c0.1,0.3,0,0.7-0.2,1L3.6,7.8L3.6,7.8z"/>
      </g>
    </g>
  </g>
</symbol><symbol id="icon-tick" viewBox="0 0 23.049 16.249">
  <path d="M22.801,1.299L21.75,0.248c-0.331-0.331-0.872-0.331-1.203,0L8.693,12.102L2.502,5.911c-0.331-0.331-0.872-0.331-1.203,0 L0.248,6.962c-0.331,0.331-0.331,0.872,0,1.202l7.837,7.837c0.167,0.167,0.388,0.248,0.608,0.246c0.22,0.002,0.44-0.079,0.608-0.246 l13.5-13.5C23.132,2.171,23.132,1.63,22.801,1.299z"/>
</symbol><symbol id="icon-twitter" viewBox="0 0 17.5 14.663">
  <g id="W6EeEF_1_">
    <g>
      <path fill-rule="evenodd" clip-rule="evenodd" d="M11.283,0.153c1.736-0.484,3.074,0.264,3.685,1.15 c0.694-0.225,1.372-0.47,2.072-0.69c-0.004,0.841-0.538,1.478-0.883,1.728C16.861,2.506,17.5,1.86,17.5,1.86 c-0.175,0.977-1.035,1.746-1.611,1.977C15.65,10.429,12.617,14.793,5.507,14.66c-0.538,0,0.077,0-0.46,0 c-0.422,0-4.29-0.45-5.047-1.843c2.341,0.192,4.011-0.412,4.835-1.15c-0.989-0.293-2.761-0.464-3.07-2.881 c0.362,0.105,0.583,0.223,1.228,0.117C1.757,8.067,0.385,7.366,0.461,5.218c0.294,0.319,1.1,0.523,1.381,0.461 c-0.725-0.235-2.03-3.281-0.921-4.836C2.794,2.655,4.769,4.364,8.29,4.528C8.506,2.288,9.461,0.788,11.283,0.153z"/>
    </g>
  </g>
</symbol><symbol id="icon-video-fullscreen" viewBox="0 0 20 20">
  <g>
    <polygon fill="#454545" points="0,0 0,3 0,6 3,6 3,3 6,3 6,0 3,0"/>
    <polygon fill="#454545" points="3,14 0,14 0,17 0,20 3,20 6,20 6,17 3,17"/>
    <polygon fill="#454545" points="17,0 14,0 14,3 17,3 17,6 20,6 20,3 20,0"/>
    <polygon fill="#454545" points="17,17 14,17 14,20 17,20 20,20 20,17 20,14 17,14"/>
  </g>
</symbol><symbol id="icon-video-replay" viewBox="0 0 16 20">
  <path d="M8,4V0L3,5l5,5V6c3.315,0,6,2.686,6,6s-2.685,6-6,6s-6-2.686-6-6H0c0,4.42,3.58,8,8,8s8-3.58,8-8S12.42,4,8,4z"/>
</symbol><symbol id="icon-video-subtitles" viewBox="0 0 32 20">
  <path fill="#454545" d="M29,0H3C1.35,0,0,1.35,0,3v14c0,1.65,1.35,3,3,3h26c1.65,0,3-1.35,3-3V3C32,1.35,30.65,0,29,0z M14.403,15.854c-0.545,0.108-1.104,0.164-1.678,0.164c-0.694,0-1.354-0.107-1.976-0.323c-0.623-0.214-1.172-0.562-1.646-1.041 s-0.852-1.103-1.133-1.868C7.69,12.02,7.551,11.091,7.551,10c0-1.134,0.157-2.085,0.471-2.851c0.315-0.768,0.723-1.384,1.224-1.854  c0.502-0.468,1.062-0.804,1.679-1.008c0.616-0.204,1.233-0.307,1.852-0.307c0.66,0,1.22,0.045,1.678,0.134  c0.457,0.087,0.835,0.192,1.133,0.313L15.14,6.347c-0.254-0.121-0.555-0.209-0.902-0.265C13.891,6.027,13.47,6,12.973,6 c-0.915,0-1.649,0.325-2.206,0.977c-0.558,0.651-0.836,1.663-0.836,3.031c0,0.598,0.067,1.142,0.199,1.632  c0.132,0.493,0.334,0.913,0.603,1.26c0.271,0.349,0.607,0.619,1.01,0.812c0.402,0.193,0.867,0.29,1.396,0.29  c0.496,0,0.915-0.049,1.257-0.148c0.342-0.099,0.639-0.227,0.893-0.38l0.463,1.841C15.398,15.564,14.949,15.745,14.403,15.854z   M23.101,15.854c-0.545,0.108-1.105,0.164-1.678,0.164c-0.694,0-1.354-0.107-1.976-0.323c-0.623-0.214-1.172-0.562-1.646-1.041  s-0.852-1.103-1.133-1.868c-0.281-0.767-0.421-1.695-0.421-2.786c0-1.134,0.157-2.085,0.471-2.851  c0.314-0.768,0.723-1.384,1.223-1.854c0.502-0.468,1.062-0.804,1.68-1.008c0.616-0.204,1.233-0.307,1.851-0.307 c0.661,0,1.221,0.045,1.678,0.134c0.458,0.087,0.836,0.192,1.133,0.313l-0.446,1.918c-0.253-0.121-0.554-0.209-0.901-0.265  C22.588,6.027,22.166,6,21.67,6c-0.915,0-1.649,0.325-2.206,0.977c-0.558,0.651-0.836,1.663-0.836,3.031  c0,0.598,0.067,1.142,0.199,1.632c0.132,0.493,0.334,0.913,0.603,1.26c0.271,0.349,0.606,0.619,1.009,0.812 c0.402,0.193,0.868,0.29,1.396,0.29c0.497,0,0.915-0.049,1.257-0.148c0.342-0.099,0.64-0.227,0.894-0.38l0.463,1.841  C24.096,15.564,23.646,15.745,23.101,15.854z"/>
</symbol><symbol id="icon-youtube" viewBox="0 0 19.979 14.015">
  <path d="M17.145,0H2.835C1.275,0,0,1.275,0,2.835v8.345c0,1.56,1.275,2.835,2.835,2.835h14.31c1.56,0,2.835-1.275,2.835-2.835V2.835 C19.979,1.275,18.704,0,17.145,0z M7.036,10.392V3.623l6.769,3.384L7.036,10.392z"/>
</symbol></svg>
