<svg>
<symbol id="icon-house" viewBox="0 0 37 36">
<g fill="#81b3d2">
<path d="M29.503 65.345h16V41.407h-16v23.938zm13.063-2.938H32.441V44.345h10.125v18.062z"/><path d="M72.62 39.44l2.075-2.078-9.907-9.913V.47H50.974v13.161L37.349 0 0 37.363l2.077 2.078 7.832-7.832v37.799H5.971v2.938h63.875v-2.938h-5.059v-37.8l7.833 7.832zM53.913 3.408h7.938v21.104l-7.938-7.94V3.408zm7.937 65.999H12.846V28.671L37.348 4.169 61.85 28.671v40.736z"/>
<path d="M29.753 27.21a7.75 7.75 0 1015.5 0 7.75 7.75 0 00-15.5 0zm7.75-4.969a4.97 4.97 0 110 9.941 4.97 4.97 0 010-9.941zM16.909 41.407h3v3.938h-3zm5.937 0h3v3.938h-3zm-5.937 6h3v3.938h-3zm5.937 0h3v3.938h-3zm26-6h3v3.938h-3zm5.938 0h3v3.938h-3zm-5.938 6h3v3.938h-3zm5.938 0h3v3.938h-3z"/>
</g>
</symbol>
<symbol id="icon-burger" viewBox="0 0 40 35">
<g fill="#81b3d2">
<path d="M71.914 46.042H4.252C1.914 46.042 0 47.955 0 50.294v3.454C0 56.086 1.914 58 4.252 58h.956v1.037c0 5.457 4.464 9.922 9.921 9.922h45.908c5.456 0 9.921-4.465 9.921-9.922V58h.956c2.339 0 4.252-1.914 4.252-4.252v-3.454c0-2.339-1.913-4.252-4.252-4.252zm-3.956 12.995c0 3.815-3.104 6.922-6.921 6.922H15.129c-3.816 0-6.921-3.104-6.921-6.922V58h59.75v1.037zm5.208-5.289c0 .679-.573 1.252-1.252 1.252H4.252C3.573 55 3 54.427 3 53.748v-3.454c0-.679.573-1.252 1.252-1.252h67.662c.679 0 1.252.573 1.252 1.252v3.454zM16.162 37.856l5.473 4 5.477-4 5.479 4 5.478-4 5.479 4 5.478-4 5.479 4 5.48-4 5.489 4 6.368-4.644-1.768-2.424-4.6 3.356-5.489-4-5.48 4-5.479-4.001-5.478 4.001-5.479-4.001-5.478 4.001-5.479-4.001-5.476 4.001-5.473-4.002-5.477 4.002-4.593-3.355-1.77 2.422 6.363 4.645zM70.888 31.094c.041-.61.055-2.616.037-3C70.242 12.476 55.804 0 38.083 0 20.363 0 5.924 12.476 5.241 28.094c-.017.384-.004 2.389.039 3h65.608zM38.083 3c16.031 0 29.15 11.154 29.842 25.094H8.241C8.933 14.154 22.051 3 38.083 3z"/>
<circle cx="38.083" cy="15.042" r="2"/><circle cx="30.083" cy="10.083" r="2"/><circle cx="46.083" cy="10.083" r="2"/>
</g>
</symbol>
<symbol id="icon-gift" viewBox="0 0 32 38">
<g fill="#81b3d2">
<path d="M60.165 22.23H35.758c13.604-6.815 14.688-11.115 14.188-13.52-1.145-3.916-5.604-6.938-9.848-5.341-5.484 2.063-7.029 10.262-8.514 16.19-1.894-5.998-3.726-13.649-8.011-17.525C22.331.909 20.524-.203 17.897.031c-3.965.352-9.652 5.317-7.344 10.849 2.217 5.313 9.539 8.67 14.354 11.35H2.834C1.275 22.23 0 23.506 0 25.065V36.25c0 1.559 1.275 2.834 2.835 2.834h.27v35.999h56.958V39.084h.104c1.561 0 2.835-1.275 2.835-2.834V25.065c-.002-1.559-1.277-2.835-2.837-2.835zM41.766 5.873c2.07-.306 4.907 1.283 5.176 3.171.386 2.723-3.349 5.192-5.008 6.343-2.484 1.723-4.853 2.611-7.178 4.006.872-3.645 2.512-12.854 7.01-13.52zm-22.534 9.848c-2.19-1.467-6.444-4.378-6.342-7.678.11-3.552 5.655-6.491 8.68-3.839 3.797 3.331 5.625 10.972 7.01 16.357-3.199-1.519-6.23-2.753-9.348-4.84zm5.882 56.426H6.042V39.084h19.072v33.063zm0-36.063H3V25.23h22.114v10.854zm10.001 36.062h-7.063V25.23h7.063v46.916zm22.01.001H38.053V39.084h19.072v33.063zM60 36.084H38.053V25.23H60v10.854z"/>
</g>
</symbol>
</svg>
